PathFileType	4	(X/Y/Z) flx_0kg_3.trc																										
DataRate	CameraRate	NumFrames	NumMarkers	Units	OrigDataRate	OrigDataStartFrame	OrigNumFrames																					
100	100	19	9	mm	100	418	835																					
Frame#	Time	gu			centelbow			EpL			centpxt8			centijc7			ij			ts			aa			ai		
		X1	Y1	Z1	X2	Y2	Z2	X3	Y3	Z3	X4	Y4	Z4	X5	Y5	Z5	X6	Y6	Z6	X7	Y7	Z7	X8	Y8	Z8	X9	Y9	Z9  
417	4.17	-103.89	63.863	101.96	-4.821	267.932	199.558	-29.058	282.342	183.926	-46.816	-153.158	-8.669	-46.816	31.938	-8.669	0	0	0	-141.232	-19.078	51.919	-138.223	86.561	107.202	-119.066	-66.529	152.63
418	4.18	-103.784	63.875	102.174	-3.674	267.293	200.069	-27.865	281.845	184.497	-46.816	-153.158	-8.669	-46.816	31.938	-8.669	0	0	0	-141.54	-19.025	52.172	-138.184	86.479	107.693	-119.281	-66.759	152.728
419	4.19	-103.849	63.84	102.508	-2.699	266.574	200.754	-26.846	281.27	185.25	-46.816	-153.158	-8.669	-46.816	31.938	-8.669	0	0	0	-141.898	-18.883	52.263	-138.219	86.463	108.062	-119.531	-66.933	152.645
420	4.2	-104.079	63.674	102.884	-1.793	265.654	201.505	-25.9	280.507	186.089	-46.816	-153.158	-8.669	-46.816	31.938	-8.669	0	0	0	-142.241	-18.727	52.134	-138.247	86.448	108.233	-119.748	-67.113	152.326
421	4.21	-104.209	63.401	103.161	-0.533	264.515	202.101	-24.609	279.546	186.808	-46.816	-153.158	-8.669	-46.816	31.938	-8.669	0	0	0	-142.459	-18.612	51.942	-138.14	86.387	108.346	-119.831	-67.34	151.938
422	4.22	-104.111	63.124	103.388	1.245	263.247	202.561	-22.808	278.479	187.433	-46.816	-153.158	-8.669	-46.816	31.938	-8.669	0	0	0	-142.595	-18.548	51.872	-137.929	86.266	108.591	-119.837	-67.632	151.664
423	4.23	-103.966	62.904	103.784	3.236	261.947	203.15	-20.799	277.395	188.213	-46.816	-153.158	-8.669	-46.816	31.938	-8.669	0	0	0	-142.843	-18.499	51.941	-137.793	86.113	108.999	-119.943	-67.969	151.51
424	4.24	-103.928	62.726	104.334	5.147	260.656	203.886	-18.871	276.321	189.15	-46.816	-153.158	-8.669	-46.816	31.938	-8.669	0	0	0	-143.257	-18.353	52.016	-137.785	86.034	109.447	-120.176	-68.248	151.331
425	4.25	-103.926	62.608	104.744	6.988	259.431	204.461	-17.015	275.309	189.929	-46.816	-153.158	-8.669	-46.816	31.938	-8.669	0	0	0	-143.703	-18.054	52.036	-137.776	86.071	109.894	-120.382	-68.43	151.051
426	4.26	-103.742	62.651	104.899	8.958	258.41	204.707	-15.029	274.49	190.372	-46.816	-153.158	-8.669	-46.816	31.938	-8.669	0	0	0	-143.994	-17.718	52.078	-137.574	86.116	110.406	-120.37	-68.621	150.752
427	4.27	-103.189	62.798	105.097	11.252	257.547	204.899	-12.711	273.82	190.743	-46.816	-153.158	-8.669	-46.816	31.938	-8.669	0	0	0	-144.022	-17.461	52.125	-137.061	86.07	110.926	-120.038	-68.903	150.431
428	4.28	-102.392	62.69	105.655	13.775	256.418	205.449	-10.148	272.884	191.45	-46.816	-153.158	-8.669	-46.816	31.938	-8.669	0	0	0	-143.904	-17.321	52.104	-136.363	85.896	111.384	-119.541	-69.317	150.024
429	4.29	-101.703	62.111	106.374	16.209	254.736	206.257	-7.659	271.408	192.409	-46.816	-153.158	-8.669	-46.816	31.938	-8.669	0	0	0	-143.861	-17.272	52.128	-135.723	85.598	111.93	-119.153	-69.871	149.639
430	4.3	-101.332	61.376	106.844	18.357	252.824	206.879	-5.459	269.709	193.2	-46.816	-153.158	-8.669	-46.816	31.938	-8.669	0	0	0	-143.984	-17.143	52.264	-135.246	85.353	112.62	-118.972	-70.381	149.35
431	4.31	-101.295	60.951	107.077	20.16	251.193	207.281	-3.607	268.293	193.784	-46.816	-153.158	-8.669	-46.816	31.938	-8.669	0	0	0	-144.206	-16.716	52.283	-134.868	85.419	113.159	-118.88	-70.563	148.951
432	4.32	-101.435	60.897	107.344	21.752	249.917	207.749	-1.963	267.229	194.432	-46.816	-153.158	-8.669	-46.816	31.938	-8.669	0	0	0	-144.428	-16.142	52.054	-134.484	85.671	113.371	-118.779	-70.528	148.335
433	4.33	-101.449	60.872	107.75	23.507	248.617	208.359	-0.145	266.148	195.218	-46.816	-153.158	-8.669	-46.816	31.938	-8.669	0	0	0	-144.681	-15.973	51.887	-134.113	85.541	113.597	-118.795	-70.861	147.819
434	4.34	-101.218	60.612	108.231	25.624	247.01	208.985	2.045	264.771	196.022	-46.816	-153.158	-8.669	-46.816	31.938	-8.669	0	0	0	-145.004	-16.363	52.021	-133.81	84.832	114.142	-119.001	-71.78	147.617
435	4.35	-100.963	60.311	108.658	27.828	245.341	209.461	4.325	263.333	196.682	-46.816	-153.158	-8.669	-46.816	31.938	-8.669	0	0	0	-145.312	-16.701	52.149	-133.537	84.142	114.733	-119.204	-72.688	147.383
